<svg viewBox="0 0 24 24" xmlns="http://www.w3.org/2000/svg"><path fill="currentColor" d="M12 2.2c3.2 0 3.6 0 4.8.1 1.2.1 2 .3 2.5.5.6.2 1 .5 1.5 1 .4.5.8.9 1 1.5.2.5.4 1.3.5 2.5.1 1.2.1 1.6.1 4.8s0 3.6-.1 4.8c-.1 1.2-.3 2-.5 2.5-.2.6-.5 1-1 1.5-.5.4-.9.8-1.5 1-.5.2-1.3.4-2.5.5-1.2.1-1.6.1-4.8.1s-3.6 0-4.8-.1c-1.2-.1-2-.3-2.5-.5-.6-.2-1-.5-1.5-1-.4-.5-.8-.9-1-1.5-.2-.5-.4-1.3-.5-2.5-.1-1.2-.1-1.6-.1-4.8s0-3.6.1-4.8c.1-1.2.3-2 .5-2.5.2-.6.5-1 1-1.5.5-.4.9-.8 1.5-1 .5-.2 1.3-.4 2.5-.5C8.4 2.2 8.8 2.2 12 2.2Zm0 1.8c-3.1 0-3.5 0-4.7.1-1 .1-1.6.2-2 .4-.5.2-.8.4-1.1.7-.3.3-.6.6-.7 1.1-.2.4-.3 1-.4 2-.1 1.2-.1 1.6-.1 4.7s0 3.5.1 4.7c.1 1 .2 1.6.4 2 .2.5.4.8.7 1.1.3.3.6.5 1.1.7.4.2 1 .3 2 .4 1.2.1 1.6.1 4.7.1s3.5 0 4.7-.1c1-.1 1.6-.2 2-.4.5-.2.8-.4 1.1-.7.3-.3.6-.6.7-1.1.2-.4.3-1 .4-2 .1-1.2.1-1.6.1-4.7s0-3.5-.1-4.7c-.1-1-.2-1.6-.4-2-.2-.5-.4-.8-.7-1.1s-.6-.6-1.1-.7c-.4-.2-1-.3-2-.4-1.2-.1-1.6-.1-4.7-.1ZM12 5.8a6.2 6.2 0 1 1 0 12.4 6.2 6.2 0 0 1 0-12.4Zm0 1.8a4.4 4.4 0 1 0 0 8.8 4.4 4.4 0 0 0 0-8.8Zm5-2.1a1.2 1.2 0 1 1 0 2.4 1.2 1.2 0 0 1 0-2.4Z"/></svg>